<mxfile host="app.diagrams.net" modified="2024-07-17T09:19:08.091Z" agent="Mozilla/5.0 (Windows NT 10.0; Win64; x64) AppleWebKit/537.36 (KHTML, like Gecko) Chrome/126.0.0.0 Safari/537.36" version="24.7.0" etag="l6kfBIRlDms9TDzTG7XU" type="github">
  <diagram name="Page-1" id="nYntPhTQ5A7PXsksXVxJ">
    <mxGraphModel>
      <root>
        <mxCell id="0" />
        <mxCell id="1" parent="0" />
      </root>
    </mxGraphModel>
  </diagram>
</mxfile>
